<svg xmlns="http://www.w3.org/2000/svg" width="76" height="76" viewBox="20.5833 20.5833 34.8334 34.8334" fill="none">
  <path fill="#000" d="M38 23.75c8.7445 0 15.8333 7.0888 15.8333 15.8333 0 8.7445-7.0888 15.8334-15.8333 15.8334-8.7445 0-15.8333-7.0889-15.8333-15.8334 0-8.7445 7.0888-15.8333 15.8333-15.8333Zm0 3.9583c-6.5584 0-11.875 5.3167-11.875 11.875 0 6.5584 5.3166 11.875 11.875 11.875 6.5584 0 11.875-5.3166 11.875-11.875 0-6.5583-5.3166-11.875-11.875-11.875Zm-.3958 3.1667c.8744 0 1.5833.7089 1.5833 1.5833v5.9376H45.125c.8744 0 1.5833.7088 1.5833 1.5833v.7916c0 .8745-.7089 1.5834-1.5833 1.5834H38c-.7917-.132-1.5833-.2639-2.0452-.7257-.4618-.4618-.5937-1.2535-.7256-2.0451v-7.1251c0-.8744.7088-1.5833 1.5833-1.5833h.7917ZM49.0833 20.5833c3.4978 0 6.3334 2.8356 6.3334 6.3334 0 1.5089-.5277 2.8946-1.4087 3.9826-2.0651-3.7987-5.4429-6.7804-9.5245-8.3361 1.1544-1.2193 2.7883-1.9799 4.5998-1.9799Zm-22.1666.0001c1.8115 0 3.4454.7605 4.5998 1.9798-4.0816 1.5557-7.4594 4.5374-9.5245 8.3361-.881-1.088-1.4087-2.4737-1.4087-3.9826 0-3.4978 2.8356-6.3333 6.3334-6.3333Z"/>
</svg>
